<svg xmlns="http://www.w3.org/2000/svg" viewBox="0 0 128 128">
  <path fill-rule="evenodd" d="M81 36 64 0 47 36l-1 2-9-5a3 3 0 0 0-4 4l5 9-2 1-36 17L17 81l2 1-5 9a3 3 0 0 0 4 4l9-5 1 2 17 36L62 111l1-2 9 5a3 3 0 0 0 4-4l-5-9 2-1 36-17L92 47l-2-1 5-9a3 3 0 0 0-4-4l-9 5-1-2Zm-17 2-2 6a3 3 0 0 1-4 2l-6-3-3 6 5 3c1 1 2 3 1 5l-3 6 7 3 3-6a3 3 0 0 1 5-1l5 4 3-7-4-5a3 3 0 0 1 1-5l6-3-3-7-6 3a3 3 0 0 1-5-1l-4-5-7 3 4 5a3 3 0 0 1-1 5l-6 3 3 7 6-3a3 3 0 0 1 5 1l4 5 7-3-4-5a3 3 0 0 1 1-5l6-3-3-7-6 3a3 3 0 0 1-5-1l-4-5Z" clip-rule="evenodd" fill="#FF5D01"/>
</svg>
